<?xml version="1.0" encoding="UTF-8" standalone="no"?>
<svg
   xmlns:dc="http://purl.org/dc/elements/1.1/"
   xmlns:cc="http://creativecommons.org/ns#"
   xmlns:rdf="http://www.w3.org/1999/02/22-rdf-syntax-ns#"
   xmlns:svg="http://www.w3.org/2000/svg"
   xmlns="http://www.w3.org/2000/svg"
   viewBox="0 0 614.66669 217.33333"
   height="217.33333"
   width="614.66669"
   xml:space="preserve"
   id="svg2"
   version="1.1"><metadata
     id="metadata8"><rdf:RDF><cc:Work
         rdf:about=""><dc:format>image/svg+xml</dc:format><dc:type
           rdf:resource="http://purl.org/dc/dcmitype/StillImage" /></cc:Work></rdf:RDF></metadata><defs
     id="defs6" /><g
     transform="matrix(1.3333333,0,0,-1.3333333,0,217.33333)"
     id="g10"><g
       transform="scale(0.1)"
       id="g12"><path
         id="path14"
         style="fill:#007f00;fill-opacity:1;fill-rule:evenodd;stroke:none"
         d="m 1252.42,426.02 c -0.97,-1.02 -2.22,-1.45 -3.71,-1.45 h -50.66 v 781.52 h 50.66 c 1.49,0 2.74,-0.23 3.71,-0.78 V 426.02 m -180.31,-30.508 c -12.42,-8.953 -23.05,-18.91 -32.03,-29.813 l -22.35,-29.801 v 958.832 l 22.35,-29.81 c 8.98,-10.94 19.61,-20.58 32.03,-29.02 V 395.512 M 563.238,303.09 508.91,374.609 v 881.411 l 54.328,71.48 V 303.09 M 382.93,815.699 V 653.238 c -3.442,-40.66 -24.809,-55.347 -64.02,-43.937 L 171.371,668.16 c -39.262,19.379 -60.82,50.899 -64.812,94.61 v 105.082 c 3.992,43.707 25.55,75.507 64.812,95.347 l 147.539,58.131 c 39.211,11.4 60.578,-3.24 64.02,-43.99 V 815.699 M 4218.44,1135.31 H 1656.95 v 16.41 c -1.99,21.37 -13.63,33.01 -35,35 h -201.91 c -22.34,1.48 -41.95,9.69 -58.83,24.61 l -50.7,50.62 c -17.35,14.93 -37.27,23.13 -59.61,24.57 h -90.86 c -22.85,1.53 -41.72,10.71 -56.64,27.58 L 879.879,1602.46 C 865,1619.34 846.371,1628.55 824.02,1630 h -96.872 c -22.347,-1.45 -40.738,-10.66 -55.117,-27.54 L 325.59,1148.01 c -14.418,-17.93 -32.07,-31.84 -52.891,-41.76 L 32.0703,1001.21 C 12.6992,990.781 1.98828,974.609 0,952.77 V 678.629 c 1.98828,-22.34 12.6992,-38.789 32.0703,-49.18 L 272.699,524.379 C 293.52,514.41 311.172,500.512 325.59,482.66 L 672.031,28.1602 C 686.41,11.8008 704.801,2.62109 727.148,0.621094 H 824.02 C 846.371,2.10938 865,11.2891 879.879,28.1602 L 1103.4,317.27 c 15.43,16.359 34.3,25.351 56.64,26.789 h 90.86 c 22.34,1.531 42.26,9.73 59.61,24.613 l 50.7,50.629 c 16.88,14.918 36.49,23.121 58.83,24.648 h 201.91 c 21.37,1.949 33.01,13.59 35,34.961 v 5.231 H 1813.4 V 742.66 h 33.55 v 47.731 h 189.96 V 742.66 h 27.58 V 499.059 h 119.96 V 845.512 H 2300.7 V 626.48 h 221.25 v 137.071 l 83.48,67.82 82.69,-67.82 V 499.059 h 120.67 v 264.492 h 73.75 v 52.148 h 42.5 v 188.481 h 158.67 V 815.699 h 89.38 V 960.23 h 170.66 V 646.559 h 77.5 v -59.61 h 54.34 v -87.89 h 77.5 v 147.5 h 38.75 v -43.938 h 239.92 v 43.938 h 39.45 v -147.5 h 30.59 v -14.918 h 58.08 v 162.418 h 35.04 v 112.5 h 31.25 v -112.5 h 35.04 V 484.141 h 157.23 l 385.9,486.48 v 164.689 h -385.9" /></g></g></svg>